<svg xmlns="http://www.w3.org/2000/svg" viewBox="0 0 64 80" x="0px" y="0px"><g data-name="wine barrel"><path d="M32,49a22.978,22.978,0,1,1,15.108-5.646A23,23,0,0,1,32,49ZM32,5A21.007,21.007,0,1,0,53,26,21.023,21.023,0,0,0,32,5Z"/><path d="M32,45a18.971,18.971,0,0,1-12.667-4.845,18.981,18.981,0,1,1,19,3.758A18.808,18.808,0,0,1,32,45ZM32,9a16.981,16.981,0,0,0-11.333,4.334,16.987,16.987,0,0,0,0,25.331,16.828,16.828,0,0,0,5.666,3.361,17.053,17.053,0,0,0,11.331,0,16.994,16.994,0,0,0,5.669-28.693h0A16.994,16.994,0,0,0,32,9Z"/><path d="M32,45a1,1,0,0,1-1-1V38a1,1,0,0,1,2,0v6A1,1,0,0,1,32,45Z"/><path d="M32,19a1,1,0,0,1-1-1V8a1,1,0,0,1,2,0V18A1,1,0,0,1,32,19Z"/><path d="M26,21.01a1,1,0,0,1-1-1V9.03a1,1,0,0,1,2,0V20.01A1,1,0,0,1,26,21.01Z"/><path d="M26,43.97a1,1,0,0,1-1-1V35.99a1,1,0,0,1,2,0v6.98A1,1,0,0,1,26,43.97Z"/><path d="M38,21.01a1,1,0,0,1-1-1V9.03a1,1,0,0,1,2,0V20.01A1,1,0,0,1,38,21.01Z"/><path d="M38,43.97a1,1,0,0,1-1-1V35.99a1,1,0,0,1,2,0v6.98A1,1,0,0,1,38,43.97Z"/><path d="M44,40.41a1,1,0,0,1-1-1V12.59a1,1,0,0,1,2,0V39.41A1,1,0,0,1,44,40.41Z"/><path d="M20,40.41a1,1,0,0,1-1-1V12.59a1,1,0,0,1,2,0V39.41A1,1,0,0,1,20,40.41Z"/><path d="M32,39a11.018,11.018,0,1,1,6.6-2.209A10.883,10.883,0,0,1,32,39Zm0-20a9.02,9.02,0,1,0,5.4,1.81A8.9,8.9,0,0,0,32,19Z"/><path d="M34,35H30a1,1,0,0,1-1-1V28a3,3,0,0,1,6,0v6A1,1,0,0,1,34,35Zm-3-2h2V28a1,1,0,0,0-2,0Z"/><path d="M35,35H29a1,1,0,0,1,0-2h6a1,1,0,0,1,0,2Z"/><path d="M36,23H28a1,1,0,0,1,0-2h8a1,1,0,0,1,0,2Z"/><path d="M32,27a1,1,0,0,1-1-1V22a1,1,0,0,1,2,0v4A1,1,0,0,1,32,27Z"/><path d="M58,61H6a3,3,0,0,1-3-3V56a3,3,0,0,1,3-3H58a3,3,0,0,1,3,3v2A3,3,0,0,1,58,61ZM6,55a1,1,0,0,0-1,1v2a1,1,0,0,0,1,1H58a1,1,0,0,0,1-1V56a1,1,0,0,0-1-1Z"/><path d="M55,55H9a1,1,0,0,1-.8-1.6L16.75,42a1,1,0,0,1,.694-.4,1.021,1.021,0,0,1,.763.241,21.033,21.033,0,0,0,27.586,0A1,1,0,0,1,47.25,42L55.8,53.4A1,1,0,0,1,55,55ZM11,53H53l-6.72-8.959a23.04,23.04,0,0,1-28.56,0Z"/></g><text x="0" y="79" fill="#000000" font-size="5px" font-weight="bold" font-family="'Helvetica Neue', Helvetica, Arial-Unicode, Arial, Sans-serif">Created by Ade Nur Hidayat</text><text x="0" y="84" fill="#000000" font-size="5px" font-weight="bold" font-family="'Helvetica Neue', Helvetica, Arial-Unicode, Arial, Sans-serif">from the Noun Project</text></svg>