<?xml version="1.0" encoding="UTF-8"?>
<svg id="Livello_1" data-name="Livello 1" xmlns="http://www.w3.org/2000/svg" version="1.1" viewBox="0 0 110 135">
  <defs>
    <style>
      .cls-1 {
        fill: #000;
        stroke-width: 0px;
      }
    </style>
  </defs>
  <path class="cls-1" d="M61.2,42.5v-16.7c0-1.2-.9-2.1-2.1-2.1h-8.3c-1.2,0-2.1.9-2.1,2.1v16.7c0,3.2-1.2,6.3-3.5,8.6-3.1,3.1-4.8,7.2-4.8,11.5v42.4c0,3.5,2.8,6.2,6.3,6.2h16.7c3.5,0,6.2-2.8,6.2-6.2v-42.4c0-4.3-1.7-8.5-4.8-11.5s-3.5-5.3-3.5-8.6ZM57.1,27.9v4.2h-4.2v-4.2h4.2ZM44.6,73.7h12.5v20.8h-12.5v-20.8ZM65.4,105c0,1.2-.9,2.1-2.1,2.1h-16.7c-1.2,0-2.1-.9-2.1-2.1v-6.2h14.6c1.2,0,2.1-.9,2.1-2.1v-25c0-1.2-.9-2.1-2.1-2.1h-14.6v-7c0-3.2,1.2-6.3,3.5-8.6,3.1-3.1,4.8-7.2,4.8-11.5v-6.2h4.2v6.2c0,4.3,1.7,8.5,4.8,11.5s3.5,5.3,3.5,8.6v42.4h0Z"/>
</svg>